<svg class="{{ include.class }}" width="720" height="720" viewBox="0 0 720 720" fill="none" xmlns="http://www.w3.org/2000/svg">
<path d="M186.002 379.001C107.752 411.857 69.8728 519.084 61 522.37C98.7214 544.777 164.952 456.231 183 518.834C172.302 442.902 185.626 378.118 186.002 379.001Z" fill="black"/>
<path d="M533 379.01C611.25 411.866 649.129 519.092 658.002 522.378C620.281 544.786 554.05 456.24 536.002 518.843C546.7 442.911 533.376 378.127 533 379.01Z" fill="black"/>
<path fill-rule="evenodd" clip-rule="evenodd" d="M528.566 383.749C526.738 388.495 524.523 393.795 521.967 399.444C509.937 426.029 490.368 460.324 468.218 480.826C457.912 464.092 449.35 441.394 443.667 411C437.15 445.852 428.11 473.957 417.524 495.316C399.98 486.964 383.024 461.864 368.777 410.81C366.083 401.156 363.486 390.573 361 379C358.514 390.574 355.916 401.156 353.221 410.809C338.298 464.251 320.391 489.202 301.948 496.263C291.159 474.79 281.947 446.369 275.333 411C269.863 440.254 261.727 462.378 251.935 478.917C230.533 458.261 211.709 425.163 200.039 399.428C196.58 391.8 193.75 384.819 191.667 379C190.651 381.838 189.635 384.608 188.619 387.312C184.547 405.526 181.94 423.583 181.21 441.184C184.883 434.189 188.589 426.508 192.305 418.073C196.65 426.789 201.606 435.903 207.045 444.861C217.107 461.431 229.455 478.533 243.386 491.475C228.178 510.846 210.16 519.676 192.289 522.483C218.977 601.571 288.988 648 359 648C429.057 648 499.114 601.511 525.763 522.329C508.727 519.449 491.607 511.026 476.958 493.151C491.528 480.074 504.424 462.316 514.868 445.108C520.344 436.083 525.334 426.893 529.707 418.102C531.897 423.072 534.084 427.78 536.262 432.239C535.051 416.33 532.387 400.095 528.566 383.749ZM395.579 498.015C400.223 502.415 405.144 505.918 410.296 508.479C379.924 558.227 339.806 558.554 309.306 509.457C315.311 506.855 321.024 502.998 326.369 497.952C339.514 485.543 351.03 465.404 360.996 436.42C370.954 465.418 382.457 485.578 395.579 498.015Z" fill="black"/>
<path fill-rule="evenodd" clip-rule="evenodd" d="M368.208 64.3044L359 72L349.792 64.3044L359 53.2879L368.208 64.3044ZM359 91.1556C354.344 97.0785 348.13 105.146 340.836 115.01C324.312 137.351 302.29 168.844 280.285 205.447C235.935 279.219 193 371.59 193 451.2C193 566.548 276.829 636 359 636C441.171 636 525 566.548 525 451.2C525 371.59 482.065 279.219 437.715 205.447C415.71 168.844 393.688 137.351 377.164 115.01C369.87 105.146 363.656 97.0785 359 91.1556ZM359 72C349.792 64.3044 349.79 64.307 349.788 64.3103L349.748 64.3572L349.64 64.4874C349.547 64.5999 349.411 64.7635 349.235 64.9772C348.882 65.4047 348.366 66.0327 347.697 66.8535C346.36 68.4949 344.413 70.9074 341.943 74.0274C337.004 80.2667 329.97 89.3399 321.539 100.739C304.688 123.524 282.21 155.663 259.715 193.081C215.065 267.353 169 364.582 169 451.2C169 579.395 263.171 660 359 660C454.829 660 549 579.395 549 451.2C549 364.582 502.935 267.353 458.285 193.081C435.79 155.663 413.312 123.524 396.461 100.739C388.03 89.3399 380.996 80.2667 376.057 74.0274C373.587 70.9074 371.64 68.4949 370.303 66.8535C369.634 66.0327 369.118 65.4047 368.765 64.9772C368.589 64.7635 368.453 64.5999 368.36 64.4874L368.252 64.3572L368.212 64.3103C368.21 64.307 368.208 64.3044 359 72Z" fill="black"/>
<path fill-rule="evenodd" clip-rule="evenodd" d="M291 291C291 329.108 321.892 360 360 360C398.108 360 429 329.108 429 291C429 252.892 398.108 222 360 222C321.892 222 291 252.892 291 291ZM406 291C406 316.405 385.405 337 360 337C334.595 337 314 316.405 314 291C314 265.595 334.595 245 360 245C385.405 245 406 265.595 406 291Z" fill="black"/>
<path fill-rule="evenodd" clip-rule="evenodd" d="M336 291C336 304.255 346.745 315 360 315C373.255 315 384 304.255 384 291C384 277.745 373.255 267 360 267C346.745 267 336 277.745 336 291ZM366 291C366 294.314 363.314 297 360 297C356.686 297 354 294.314 354 291C354 287.686 356.686 285 360 285C363.314 285 366 287.686 366 291Z" fill="black"/>
</svg>
