<?xml version="1.0" encoding="UTF-8"?>
<svg width="2141px" height="720px" viewBox="0 0 2141 720" version="1.1" xmlns="http://www.w3.org/2000/svg" xmlns:xlink="http://www.w3.org/1999/xlink">
    <title>Wordmark</title>
    <g id="Wordmark" stroke="none" stroke-width="1" fill="none" fill-rule="evenodd">
        <path d="M784,465 L784,439.014286 L704.203822,439.014286 C697.070064,439.014286 690.853503,437.434762 685.55414,434.275714 C680.254777,431.116667 676.178344,426.887619 673.324841,421.588571 C670.471338,416.289524 669.044586,410.582857 669.044586,404.468571 C669.044586,398.354286 670.522293,392.596667 673.477707,387.195714 C676.433121,381.794762 680.611465,377.412857 686.012739,374.05 C691.414013,370.687143 697.88535,369.005714 705.426752,369.005714 L705.426752,369.005714 L772.687898,369.005714 L772.687898,343.02 L703.286624,343.02 C697.171975,343.02 691.566879,341.542381 686.471338,338.587143 C681.375796,335.631905 677.350318,331.708571 674.394904,326.817143 C671.43949,321.925714 669.961783,316.524762 669.961783,310.614286 C669.961783,304.29619 671.388535,298.640476 674.242038,293.647143 C677.095541,288.65381 680.968153,284.628571 685.859873,281.571429 C690.751592,278.514286 696.356688,276.985714 702.675159,276.985714 L702.675159,276.985714 L784,276.985714 L784,251 L699.312102,251 C688.509554,251 678.624204,253.700476 669.656051,259.101429 C660.687898,264.502381 653.605096,271.686667 648.407643,280.654286 C643.210191,289.621905 640.611465,299.608571 640.611465,310.614286 C640.611465,319.581905 642.853503,328.141905 647.33758,336.294286 C651.821656,344.446667 658.343949,351.274286 666.904459,356.777143 C658.140127,361.668571 651.464968,368.394286 646.878981,376.954286 C642.292994,385.514286 640,394.685714 640,404.468571 C640,415.270476 642.547771,425.257143 647.643312,434.428571 C652.738854,443.6 659.821656,450.988095 668.89172,456.592857 C677.961783,462.197619 688.407643,465 700.229299,465 L700.229299,465 L784,465 Z M885.181818,469 C895.549242,469 904.595328,467.270287 912.320076,463.810861 C920.044823,460.351436 926.499053,455.925406 931.682765,450.532772 C936.866477,445.140137 940.982955,439.493134 944.032197,433.59176 L944.032197,433.59176 L944.642045,433.59176 L944.642045,465.337079 L973,465.337079 L973,386.58427 C973,371.525593 969.798295,357.891386 963.394886,345.681648 C956.991477,333.47191 947.894571,323.805868 936.104167,316.683521 C924.313763,309.561174 910.185606,306 893.719697,306 C876.643939,306 862.007576,309.612047 849.810606,316.836142 C837.613636,324.060237 828.262626,333.828027 821.757576,346.139513 C815.252525,358.450999 812,372.237828 812,387.5 C812,402.558677 814.947601,416.294632 820.842803,428.707865 C826.738005,441.121099 835.174242,450.939763 846.151515,458.163858 C857.128788,465.387953 870.138889,469 885.181818,469 Z M892,445 C880.988235,445 871.607843,442.451241 863.858824,437.353723 C856.109804,432.256206 850.196078,425.374557 846.117647,416.708777 C842.039216,408.042996 840,398.408688 840,387.805851 C840,376.795213 842.090196,366.957004 846.270588,358.291223 C850.45098,349.625443 856.466667,342.743794 864.317647,337.646277 C872.168627,332.548759 881.6,330 892.611765,330 C903.011765,330 912.086275,332.497784 919.835294,337.493351 C927.584314,342.488918 933.54902,349.268617 937.729412,357.832447 C941.909804,366.396277 944,376.08156 944,386.888298 C944,397.898936 941.807843,407.839096 937.423529,416.708777 C933.039216,425.578457 926.921569,432.511082 919.070588,437.506649 C911.219608,442.502216 902.196078,445 892,445 Z M1092.86512,465 C1102.41085,465 1110.78876,462.756863 1117.99884,458.270588 C1125.20891,453.784314 1130.84496,447.921569 1134.90698,440.682353 C1138.96899,433.443137 1141,425.643137 1141,417.282353 C1141,407.494118 1139.01977,399.235294 1135.0593,392.505882 C1131.09884,385.776471 1125.31047,380.627451 1117.69419,377.058824 C1110.07791,373.490196 1100.6845,371.705882 1089.51395,371.705882 L1089.51395,371.705882 L1059.65814,371.705882 C1052.75271,371.705882 1047.42132,369.819608 1043.66395,366.047059 C1039.90659,362.27451 1038.02791,357.839216 1038.02791,352.741176 C1038.02791,347.439216 1039.85581,342.85098 1043.51163,338.976471 C1047.16744,335.101961 1052.14341,333.164706 1058.43953,333.164706 L1058.43953,333.164706 L1127.2907,333.164706 L1127.2907,309 L1055.69767,309 C1046.76124,309 1038.84031,311.090196 1031.93488,315.270588 C1025.02946,319.45098 1019.64729,324.905882 1015.78837,331.635294 C1011.92946,338.364706 1010,345.705882 1010,353.658824 C1010,363.039216 1012.08178,370.992157 1016.24535,377.517647 C1020.40891,384.043137 1026.19729,388.988235 1033.61047,392.352941 C1041.02364,395.717647 1049.7062,397.4 1059.65814,397.4 L1059.65814,397.4 L1091.03721,397.4 C1095.70853,397.4 1099.71977,398.368627 1103.07093,400.305882 C1106.42209,402.243137 1108.91008,404.792157 1110.53488,407.952941 C1112.15969,411.113725 1112.97209,414.529412 1112.97209,418.2 C1112.97209,422.07451 1112.05814,425.745098 1110.23023,429.211765 C1108.40233,432.678431 1105.71124,435.482353 1102.15698,437.623529 C1098.60271,439.764706 1094.38837,440.835294 1089.51395,440.835294 L1089.51395,440.835294 L1015.17907,440.835294 L1015.17907,465 L1092.86512,465 Z M1297.74636,465 L1297.74636,440.785441 L1257.09979,440.785441 C1247.11642,440.785441 1237.99896,439.099617 1229.7474,435.727969 C1221.49584,432.356322 1214.72141,427.349936 1209.42412,420.708812 C1204.12682,414.067688 1200.96881,405.945083 1199.9501,396.340996 L1199.9501,396.340996 L1316.08316,396.340996 C1316.49064,394.501916 1316.74532,392.356322 1316.84719,389.904215 C1316.94906,387.452107 1317,385.102171 1317,382.854406 C1317,368.346105 1314.35135,355.217114 1309.05405,343.467433 C1303.75676,331.717752 1295.75988,322.369093 1285.06341,315.421456 C1274.36694,308.473819 1260.97089,305 1244.87526,305 C1230.00208,305 1216.96258,308.57599 1205.75676,315.727969 C1194.55094,322.879949 1185.79002,332.637292 1179.47401,345 C1173.158,357.362708 1170,371.309068 1170,386.83908 C1170,402.573436 1173.7183,416.315453 1181.15489,428.065134 C1188.59148,439.814815 1198.93139,448.908046 1212.17464,455.344828 C1225.41788,461.781609 1240.59667,465 1257.71102,465 L1257.71102,465 L1297.74636,465 Z M1288,377 L1199,377 C1199.40779,371.25641 1200.63116,365.512821 1202.6701,359.769231 C1204.70905,354.025641 1207.66552,348.846154 1211.53952,344.230769 C1215.41352,339.615385 1220.05212,335.923077 1225.45533,333.153846 C1230.85853,330.384615 1237.12829,329 1244.2646,329 C1250.99313,329 1256.8551,330.025641 1261.85052,332.076923 C1266.84593,334.128205 1271.02577,336.846154 1274.39003,340.230769 C1277.7543,343.615385 1280.4559,347.410256 1282.49485,351.615385 C1284.53379,355.820513 1285.96105,360.128205 1286.77663,364.538462 C1287.59221,368.948718 1288,373.102564 1288,377 L1288,377 Z M1380.21849,465 L1380.21849,374.885057 C1380.21849,365.485313 1382.31443,357.362708 1386.5063,350.517241 C1390.69818,343.671775 1396.21919,338.409962 1403.06933,334.731801 C1409.91947,331.05364 1417.22969,329.214559 1425,329.214559 C1432.77031,329.214559 1440.08053,331.05364 1446.93067,334.731801 C1453.78081,338.409962 1459.30182,343.671775 1463.4937,350.517241 C1467.68557,357.362708 1469.78151,365.485313 1469.78151,374.885057 L1469.78151,374.885057 L1469.78151,465 L1498,465 L1498,374.578544 C1498,360.683269 1494.88165,348.524904 1488.64496,338.103448 C1482.40826,327.681992 1473.82003,319.559387 1462.88025,313.735632 C1451.94048,307.911877 1439.31373,305 1425,305 C1410.89076,305 1398.31513,307.911877 1387.27311,313.735632 C1376.23109,319.559387 1367.59174,327.681992 1361.35504,338.103448 C1355.11835,348.524904 1352,360.683269 1352,374.578544 L1352,374.578544 L1352,465 L1380.21849,465 Z M1661.74636,465 L1661.74636,440.785441 L1621.09979,440.785441 C1611.11642,440.785441 1601.99896,439.099617 1593.7474,435.727969 C1585.49584,432.356322 1578.72141,427.349936 1573.42412,420.708812 C1568.12682,414.067688 1564.96881,405.945083 1563.9501,396.340996 L1563.9501,396.340996 L1680.08316,396.340996 C1680.49064,394.501916 1680.74532,392.356322 1680.84719,389.904215 C1680.94906,387.452107 1681,385.102171 1681,382.854406 C1681,368.346105 1678.35135,355.217114 1673.05405,343.467433 C1667.75676,331.717752 1659.75988,322.369093 1649.06341,315.421456 C1638.36694,308.473819 1624.97089,305 1608.87526,305 C1594.00208,305 1580.96258,308.57599 1569.75676,315.727969 C1558.55094,322.879949 1549.79002,332.637292 1543.47401,345 C1537.158,357.362708 1534,371.309068 1534,386.83908 C1534,402.573436 1537.7183,416.315453 1545.15489,428.065134 C1552.59148,439.814815 1562.93139,448.908046 1576.17464,455.344828 C1589.41788,461.781609 1604.59667,465 1621.71102,465 L1621.71102,465 L1661.74636,465 Z M1653,377 L1564,377 C1564.40779,371.25641 1565.63116,365.512821 1567.6701,359.769231 C1569.70905,354.025641 1572.66552,348.846154 1576.53952,344.230769 C1580.41352,339.615385 1585.05212,335.923077 1590.45533,333.153846 C1595.85853,330.384615 1602.12829,329 1609.2646,329 C1615.99313,329 1621.8551,330.025641 1626.85052,332.076923 C1631.84593,334.128205 1636.02577,336.846154 1639.39003,340.230769 C1642.7543,343.615385 1645.4559,347.410256 1647.49485,351.615385 C1649.53379,355.820513 1650.96105,360.128205 1651.77663,364.538462 C1652.59221,368.948718 1653,373.102564 1653,377 L1653,377 Z M1792.86512,465 C1802.41085,465 1810.78876,462.756863 1817.99884,458.270588 C1825.20891,453.784314 1830.84496,447.921569 1834.90698,440.682353 C1838.96899,433.443137 1841,425.643137 1841,417.282353 C1841,407.494118 1839.01977,399.235294 1835.0593,392.505882 C1831.09884,385.776471 1825.31047,380.627451 1817.69419,377.058824 C1810.07791,373.490196 1800.6845,371.705882 1789.51395,371.705882 L1789.51395,371.705882 L1759.65814,371.705882 C1752.75271,371.705882 1747.42132,369.819608 1743.66395,366.047059 C1739.90659,362.27451 1738.02791,357.839216 1738.02791,352.741176 C1738.02791,347.439216 1739.85581,342.85098 1743.51163,338.976471 C1747.16744,335.101961 1752.14341,333.164706 1758.43953,333.164706 L1758.43953,333.164706 L1827.2907,333.164706 L1827.2907,309 L1755.69767,309 C1746.76124,309 1738.84031,311.090196 1731.93488,315.270588 C1725.02946,319.45098 1719.64729,324.905882 1715.78837,331.635294 C1711.92946,338.364706 1710,345.705882 1710,353.658824 C1710,363.039216 1712.08178,370.992157 1716.24535,377.517647 C1720.40891,384.043137 1726.19729,388.988235 1733.61047,392.352941 C1741.02364,395.717647 1749.7062,397.4 1759.65814,397.4 L1759.65814,397.4 L1791.03721,397.4 C1795.70853,397.4 1799.71977,398.368627 1803.07093,400.305882 C1806.42209,402.243137 1808.91008,404.792157 1810.53488,407.952941 C1812.15969,411.113725 1812.97209,414.529412 1812.97209,418.2 C1812.97209,422.07451 1812.05814,425.745098 1810.23023,429.211765 C1808.40233,432.678431 1805.71124,435.482353 1802.15698,437.623529 C1798.60271,439.764706 1794.38837,440.835294 1789.51395,440.835294 L1789.51395,440.835294 L1715.17907,440.835294 L1715.17907,465 L1792.86512,465 Z M1953.86512,465 C1963.41085,465 1971.78876,462.756863 1978.99884,458.270588 C1986.20891,453.784314 1991.84496,447.921569 1995.90698,440.682353 C1999.96899,433.443137 2002,425.643137 2002,417.282353 C2002,407.494118 2000.01977,399.235294 1996.0593,392.505882 C1992.09884,385.776471 1986.31047,380.627451 1978.69419,377.058824 C1971.07791,373.490196 1961.6845,371.705882 1950.51395,371.705882 L1950.51395,371.705882 L1920.65814,371.705882 C1913.75271,371.705882 1908.42132,369.819608 1904.66395,366.047059 C1900.90659,362.27451 1899.02791,357.839216 1899.02791,352.741176 C1899.02791,347.439216 1900.85581,342.85098 1904.51163,338.976471 C1908.16744,335.101961 1913.14341,333.164706 1919.43953,333.164706 L1919.43953,333.164706 L1988.2907,333.164706 L1988.2907,309 L1916.69767,309 C1907.76124,309 1899.84031,311.090196 1892.93488,315.270588 C1886.02946,319.45098 1880.64729,324.905882 1876.78837,331.635294 C1872.92946,338.364706 1871,345.705882 1871,353.658824 C1871,363.039216 1873.08178,370.992157 1877.24535,377.517647 C1881.40891,384.043137 1887.19729,388.988235 1894.61047,392.352941 C1902.02364,395.717647 1910.7062,397.4 1920.65814,397.4 L1920.65814,397.4 L1952.03721,397.4 C1956.70853,397.4 1960.71977,398.368627 1964.07093,400.305882 C1967.42209,402.243137 1969.91008,404.792157 1971.53488,407.952941 C1973.15969,411.113725 1973.97209,414.529412 1973.97209,418.2 C1973.97209,422.07451 1973.05814,425.745098 1971.23023,429.211765 C1969.40233,432.678431 1966.71124,435.482353 1963.15698,437.623529 C1959.60271,439.764706 1955.38837,440.835294 1950.51395,440.835294 L1950.51395,440.835294 L1876.17907,440.835294 L1876.17907,465 L1953.86512,465 Z" id="Easeness" fill="#000000" fill-rule="nonzero"></path>
        <g id="easeness-kite" transform="translate(389.000000, 358.000000) scale(-1, 1) translate(-389.000000, -358.000000) translate(129.000000, 103.000000)" fill="#000000" fill-rule="nonzero" stroke="#000000" stroke-width="0.5">
            <path d="M292.915649,0 C289.895626,10.5417374 284.69632,21.3060004 278.243649,32.207543 C266.587246,51.8982951 250.505902,72.0296701 233.525188,90.5225478 C216.544475,109.016533 198.680986,125.816665 183.392812,138.562625 C181.583011,140.071592 179.817459,141.51192 178.086201,142.902428 C259.713099,140.832165 321.737506,131.384235 368.598744,119.070042 C350.162225,79.6021847 325.495388,39.511034 292.916755,0.00221418555 L292.915649,0 Z M321.447672,3.89475238 C349.43211,40.3269614 371.206141,77.1898295 387.929102,113.565577 C410.889018,106.530002 429.665151,98.8556351 444.884738,91.2399439 C470.543868,78.3998819 486.221437,65.7546682 495.395447,56.5735479 C496.014939,55.9535759 496.523807,55.405565 497.080243,54.8265555 C469.501795,51.1510075 402.899786,39.3161857 321.44546,3.89253819 L321.447672,3.89475238 Z M511.074121,69.0272345 C510.554191,69.5674958 510.029835,70.1121854 509.476717,70.6635176 C498.73849,81.4100672 481.228996,95.3350801 453.788827,109.066352 C438.008379,116.963245 418.931349,124.795926 395.976964,131.953281 C417.806308,184.679681 433.119924,254.924718 436.704127,307.478412 C441.03172,376.383866 432.057938,434.165252 422.054252,472.460698 C428.982604,463.551923 436.219596,452.829729 443.316096,440.570891 C460.807891,410.347258 478.068482,371.078677 491.738233,327.448151 C517.075448,246.57281 529.767287,150.760573 511.073015,69.0272345 L511.074121,69.0272345 Z M376.782674,137.511994 C326.030806,151.175733 258.633414,161.386449 169.387872,163.021625 C203.688913,195.234704 237.299664,234.052698 268.030883,273.939036 C238.929148,307.232637 207.440158,338.14156 176.262019,365.362757 C172.040624,369.049376 167.825868,372.660713 163.624385,376.208945 L154.686003,356.832608 L129.810088,359.598125 L132.572358,384.494428 L149.295318,388.081408 C135.476226,399.313972 121.893867,409.727286 108.788296,419.223928 L103.343406,400.837331 L78.3281043,399.993726 L77.4851529,425.03063 L92.6096034,430.649125 C85.8980732,435.265702 79.3436284,439.623219 73.0026871,443.675179 C66.2491199,447.992841 59.7278622,451.954019 53.4665698,455.587497 L53.7298538,438.471843 L30.1073029,430.187468 L21.8304495,453.828327 L36.3066461,465.045391 C21.3968053,472.788398 8.87200797,477.968485 0,480.188206 L4.83093003,499.518046 C8.88417656,498.503949 13.2438503,497.115654 17.8623831,495.401875 L17.7008728,494.757547 C20.3724313,494.088863 23.4167911,493.096908 26.7609408,491.827072 C32.5310647,489.343863 38.6750961,486.391247 45.1321922,483.03122 L44.8467835,501.718946 L68.4693344,510 L76.7484002,486.361355 L61.1139751,474.247546 C68.3288425,470.082663 75.8678368,465.490442 83.7176832,460.475312 C86.2321563,458.867813 88.7842414,457.202746 91.35292,455.511108 C96.7070994,451.846631 102.210621,447.94745 107.828084,443.856742 L113.748656,463.850838 L138.76617,464.694442 L139.609121,439.657539 L122.157151,433.177725 C135.996156,422.62381 150.415935,410.949517 165.108953,398.334194 L174.036273,417.695033 L198.915507,414.929515 L196.149919,390.033213 L178.855035,386.322238 C183.807651,381.920437 188.777966,377.430069 193.759344,372.834527 C263.861482,308.153738 335.604167,224.838364 378.140025,140.787881 C377.688681,139.696288 377.243974,138.606908 376.782674,137.511994 L376.782674,137.511994 Z M387.640374,165.508156 C361.484544,213.345634 327.143679,260.012916 289.707566,302.902797 C301.637209,319.257879 313.015946,335.56757 323.660143,351.448815 C347.551509,387.108274 367.796724,420.520334 382.651253,447.385047 C389.476725,459.729131 395.007902,470.249834 399.337708,479.282604 C409.658884,444.243118 421.470159,382.602406 416.831714,308.729427 C414.061701,264.60403 405.561388,215.982729 387.638162,165.508156 L387.640374,165.508156 Z" id="Shape"></path>
        </g>
    </g>
</svg>