<?xml version="1.0" encoding="UTF-8"?>
<svg width="2289px" height="720px" viewBox="0 0 2289 720" version="1.1" xmlns="http://www.w3.org/2000/svg" xmlns:xlink="http://www.w3.org/1999/xlink">
    <title>Wordmark</title>
    <defs>
        <radialGradient cx="49.8850096%" cy="50%" fx="49.8850096%" fy="50%" r="77.9040253%" gradientTransform="translate(0.498850,0.500000),scale(0.892999,1.000000),translate(-0.498850,-0.500000)" id="radialGradient-1">
            <stop stop-color="#1DC6E2" offset="0%"></stop>
            <stop stop-color="#C7198F" offset="100%"></stop>
        </radialGradient>
    </defs>
    <g id="Wordmark" stroke="none" stroke-width="1" fill="none" fill-rule="evenodd">
        <g id="bagua" transform="translate(142.000000, 120.000000)" fill="url(#radialGradient-1)" fill-rule="nonzero">
            <path d="M232.067137,219.498096 L248.544555,219.498096 L248.544555,100.834974 L232.067137,100.834974 L232.067137,219.498096 Z M265.028353,219.498096 L281.50577,219.498096 L281.50577,100.834974 L265.028353,100.834974 L265.028353,219.498096 Z M300.634784,96.4505416 L419.296917,96.4505416 L419.296917,79.9671222 L300.634784,79.9671222 L300.634784,96.4505416 Z M300.630269,129.412865 L419.292407,129.412865 L419.296917,112.933961 L300.634784,112.933961 L300.630269,129.412865 Z M418.335006,383.629691 L299.672868,383.629691 L299.672868,400.113111 L418.335006,400.113111 L418.335006,383.629691 Z M179.363994,317.66702 L60.701856,317.66702 L60.7063656,334.145924 L179.368504,334.145924 L179.363994,317.66702 Z M62.3970411,162.294459 L181.059174,162.294459 L181.063689,145.815554 L62.4015508,145.815554 L62.3970411,162.294459 Z M181.063689,129.332135 L181.059174,112.853231 L62.3970411,112.853231 L62.4015508,129.332135 L181.063689,129.332135 Z M199.105571,332.415046 L199.105571,378.564543 L215.582988,378.564543 L215.582988,332.415046 L199.105571,332.415046 Z M199.105571,259.901908 L199.105571,306.045024 L215.582988,306.045024 L215.582988,259.901908 L199.105571,259.901908 Z M232.066786,332.415046 L232.066786,378.564543 L248.544203,378.564543 L248.544203,332.415046 L232.066786,332.415046 Z M232.066786,259.901908 L232.066786,306.045024 L248.544203,306.045024 L248.544203,259.901908 L232.066786,259.901908 Z M265.028001,332.415046 L265.028001,378.564543 L281.505419,378.564543 L281.505419,332.415046 L265.028001,332.415046 Z M265.028001,259.901908 L265.028001,306.045024 L281.505419,306.045024 L281.505419,259.901908 L265.028001,259.901908 Z M130.897973,252.881755 L130.897973,299.031252 L147.381771,299.031252 L147.381771,252.881755 L130.897973,252.881755 Z M130.897973,226.518114 L147.381771,226.518114 L147.381771,180.368616 L130.897973,180.368616 L130.897973,226.518114 Z M62.4015129,79.8913987 L62.3970033,96.3703085 L108.54603,96.3748182 L108.54603,79.8913987 L62.4015129,79.8913987 Z M181.06403,79.8913987 L134.915003,79.8868891 L134.915003,96.3703085 L181.05952,96.3703085 L181.06403,79.8913987 Z M345.817234,317.705655 L299.672717,317.705655 L299.672717,334.189074 L345.817234,334.189074 L345.817234,317.705655 Z M418.335233,317.705655 L372.190716,317.705655 L372.190716,334.189074 L418.335233,334.189074 L418.335233,317.705655 Z M133.220126,400.074665 L179.369153,400.070156 L179.364643,383.591246 L133.220126,383.591246 L133.220126,400.074665 Z M60.7066739,400.070118 L106.851191,400.070118 L106.851191,383.586698 L60.7021642,383.591208 L60.7066739,400.070118 Z M345.821938,350.668017 L299.668396,350.668017 L299.672906,367.146926 L345.817423,367.146926 L345.821938,350.668017 Z M372.186358,350.668054 L372.186358,367.151474 L418.335385,367.146964 L418.335385,350.672569 L372.186358,350.668054 Z M133.220277,367.107756 L179.364794,367.107756 L179.369304,350.628846 L133.220277,350.624337 L133.220277,367.107756 Z M106.851305,367.112266 L106.851305,350.628846 L60.7067874,350.628846 L60.7022777,367.107756 L106.851305,367.112266 Z M373.149112,162.370453 L419.298144,162.374962 L419.298144,145.891543 L373.149112,145.896058 L373.149112,162.370453 Z M300.63566,162.375 L300.63566,145.891581 L346.780177,145.891581 L346.780177,162.375 L300.63566,162.375 Z M366.190001,252.88143 L382.667419,252.88143 L382.667419,299.030928 L366.190001,299.030928 L366.190001,252.88143 Z M366.190001,226.517789 L366.190001,180.368292 L382.667419,180.368292 L382.667419,226.517789 L366.190001,226.517789 Z M300.261515,252.881971 L300.261515,299.031468 L316.745312,299.031468 L316.745312,252.881971 L300.261515,252.881971 Z M300.261515,226.51833 L316.745312,226.51833 L316.745312,180.368833 L300.261515,180.368833 L300.261515,226.51833 Z M333.22273,299.031955 L349.706528,299.031955 L349.706528,180.368833 L333.22273,180.368833 L333.22273,299.031955 Z M114.420718,299.031955 L114.420718,180.368833 L97.9369196,180.368833 L97.9369196,299.031955 L114.420718,299.031955 Z M180.342932,299.031955 L180.342932,180.368833 L163.859134,180.368833 L163.859134,299.031955 L180.342932,299.031955 Z M199.104624,219.498745 L215.582042,219.498745 L215.582042,100.835623 L199.104624,100.835623 L199.104624,219.498745 Z" id="Shape" transform="translate(240.000000, 240.000000) rotate(-135.000000) translate(-240.000000, -240.000000) "></path>
        </g>
        <path d="M810.242836,458 C820.322272,458 829.14178,455.698895 836.701357,451.096685 C844.260935,446.494475 850.200603,440.222836 854.520362,432.281768 C858.840121,424.3407 861,415.406998 861,405.480663 L861,405.480663 L861,265.248619 L835.081448,265.248619 L835.081448,409 C835.081448,413.872928 833.956511,418.294659 831.706637,422.265193 C829.456762,426.235727 826.441931,429.394107 822.662142,431.740331 C818.882353,434.086556 814.742584,435.259669 810.242836,435.259669 C805.743087,435.259669 801.558321,434.086556 797.688537,431.740331 C793.818753,429.394107 790.713927,426.235727 788.374057,422.265193 C786.034188,418.294659 784.864253,413.872928 784.864253,409 L784.864253,409 L784.864253,314.519337 C784.864253,304.593002 782.704374,295.6593 778.384615,287.718232 C774.064857,279.777164 768.035194,273.505525 760.295626,268.903315 C752.556058,264.301105 743.556561,262 733.297134,262 C723.217697,262 714.308195,264.301105 706.568627,268.903315 C698.82906,273.505525 692.799397,279.777164 688.479638,287.718232 C684.159879,295.6593 682,304.593002 682,314.519337 L682,314.519337 L682,454.751381 L707.918552,454.751381 L707.918552,311 C707.918552,306.127072 709.043489,301.705341 711.293363,297.734807 C713.543238,293.764273 716.603067,290.605893 720.472851,288.259669 C724.342634,285.913444 728.617396,284.740331 733.297134,284.740331 C737.976873,284.740331 742.296631,285.913444 746.25641,288.259669 C750.216189,290.605893 753.366013,293.764273 755.705882,297.734807 C758.045752,301.705341 759.215686,306.127072 759.215686,311 L759.215686,311 L759.215686,405.480663 C759.215686,415.406998 761.375566,424.3407 765.695324,432.281768 C770.015083,440.222836 775.999749,446.494475 783.649321,451.096685 C791.298894,455.698895 800.163399,458 810.242836,458 Z M908.320863,455 L925.092086,409.189607 L1024.0964,409.189607 L1040.59712,455 L1069,455 L1004.34964,283.143258 C1001.6446,275.734082 997.722302,270.357912 992.582734,267.014747 C987.443165,263.671582 981.53717,262 974.864748,262 C968.192326,262 962.331415,263.71676 957.282014,267.150281 C952.232614,270.583801 948.265228,276.00515 945.379856,283.414326 L945.379856,283.414326 L881,455 L908.320863,455 Z M1016,386 L933,386 L967.605863,292.291444 C968.326819,289.95098 969.228013,288.150624 970.309446,286.890374 C971.390879,285.630125 972.83279,285 974.635179,285 C976.617807,285 978.149837,285.630125 979.23127,286.890374 C980.312704,288.150624 981.304017,289.95098 982.205212,292.291444 L982.205212,292.291444 L1016,386 Z M1213.63541,458 C1223.38462,458 1232.09571,455.744015 1239.7687,451.232044 C1247.44169,446.720074 1253.48981,440.538674 1257.91307,432.687845 C1262.33632,424.837017 1264.54795,415.677716 1264.54795,405.209945 L1264.54795,405.209945 L1264.54795,311 C1264.54795,306.127072 1265.72146,301.705341 1268.06849,297.734807 C1270.41553,293.764273 1273.52986,290.605893 1277.41149,288.259669 C1281.29312,285.913444 1285.67123,284.740331 1290.54584,284.740331 C1295.2399,284.740331 1299.52775,285.913444 1303.40938,288.259669 C1307.29101,290.605893 1310.3602,293.764273 1312.61697,297.734807 C1314.87373,301.705341 1316.00211,306.127072 1316.00211,311 L1316.00211,311 L1316.00211,454.751381 L1342,454.751381 L1342,314.519337 C1342,304.593002 1339.83351,295.6593 1335.50053,287.718232 C1331.16754,279.777164 1325.11942,273.505525 1317.35616,268.903315 C1309.5929,264.301105 1300.65613,262 1290.54584,262 C1280.25501,262 1271.22796,264.301105 1263.4647,268.903315 C1255.70144,273.505525 1249.60818,279.777164 1245.18493,287.718232 C1240.76168,295.6593 1238.55005,304.593002 1238.55005,314.519337 L1238.55005,314.519337 L1238.55005,408.729282 C1238.55005,413.782689 1237.42167,418.24954 1235.16491,422.129834 C1232.90815,426.010129 1229.88409,429.123389 1226.09273,431.469613 C1222.30137,433.815838 1218.14893,434.98895 1213.63541,434.98895 C1209.12188,434.98895 1204.92431,433.815838 1201.04268,431.469613 C1197.16105,429.123389 1194.04672,426.010129 1191.69968,422.129834 C1189.35265,418.24954 1188.17914,413.782689 1188.17914,408.729282 L1188.17914,408.729282 L1188.17914,314.519337 C1188.17914,304.593002 1186.01264,295.6593 1181.67966,287.718232 C1177.34668,279.777164 1171.29856,273.505525 1163.5353,268.903315 C1155.77204,264.301105 1146.74499,262 1136.45416,262 C1126.34387,262 1117.4071,264.301105 1109.64384,268.903315 C1101.88058,273.505525 1095.83246,279.777164 1091.49947,287.718232 C1087.16649,295.6593 1085,304.593002 1085,314.519337 L1085,314.519337 L1085,454.751381 L1110.99789,454.751381 L1110.99789,311 C1110.99789,306.127072 1112.12627,301.705341 1114.38303,297.734807 C1116.6398,293.764273 1119.70899,290.605893 1123.59062,288.259669 C1127.47225,285.913444 1131.7601,284.740331 1136.45416,284.740331 C1141.14823,284.740331 1145.48121,285.913444 1149.45311,288.259669 C1153.42501,290.605893 1156.58447,293.764273 1158.93151,297.734807 C1161.27854,301.705341 1162.45205,306.127072 1162.45205,311 L1162.45205,311 L1162.45205,405.209945 C1162.45205,415.677716 1164.66368,424.837017 1169.08693,432.687845 C1173.51019,440.538674 1179.60344,446.720074 1187.3667,451.232044 C1195.12996,455.744015 1203.8862,458 1213.63541,458 Z M1501,455 L1501,431.928571 L1430.07006,431.928571 C1423.72895,431.928571 1418.20311,430.52619 1413.49257,427.721429 C1408.78202,424.916667 1405.15853,421.161905 1402.62208,416.457143 C1400.08563,411.752381 1398.81741,406.685714 1398.81741,401.257143 C1398.81741,395.828571 1400.13093,390.716667 1402.75796,385.921429 C1405.385,381.12619 1409.09908,377.235714 1413.90021,374.25 C1418.70134,371.264286 1424.45364,369.771429 1431.15711,369.771429 L1431.15711,369.771429 L1490.9448,369.771429 L1490.9448,346.7 L1429.25478,346.7 C1423.81953,346.7 1418.83723,345.388095 1414.30786,342.764286 C1409.77849,340.140476 1406.20028,336.657143 1403.57325,332.314286 C1400.94621,327.971429 1399.6327,323.17619 1399.6327,317.928571 C1399.6327,312.319048 1400.90092,307.297619 1403.43737,302.864286 C1405.97381,298.430952 1409.41614,294.857143 1413.76433,292.142857 C1418.11253,289.428571 1423.09483,288.071429 1428.71125,288.071429 L1428.71125,288.071429 L1501,288.071429 L1501,265 L1425.72187,265 C1416.1196,265 1407.33263,267.397619 1399.36093,272.192857 C1391.38924,276.988095 1385.09342,283.366667 1380.47346,291.328571 C1375.8535,299.290476 1373.54352,308.157143 1373.54352,317.928571 C1373.54352,325.890476 1375.53645,333.490476 1379.52229,340.728571 C1383.50814,347.966667 1389.30573,354.028571 1396.91507,358.914286 C1389.12456,363.257143 1383.19108,369.228571 1379.11465,376.828571 C1375.03822,384.428571 1373,392.571429 1373,401.257143 C1373,410.847619 1375.26469,419.714286 1379.79406,427.857143 C1384.32343,436 1390.61925,442.559524 1398.68153,447.535714 C1406.74381,452.511905 1416.02902,455 1426.53715,455 L1426.53715,455 L1501,455 Z M1632,455 L1632,431.928571 L1581.09383,431.928571 C1573.8731,431.928571 1568.05139,429.621429 1563.62869,425.007143 C1559.20599,420.392857 1556.99464,414.557143 1556.99464,407.5 L1556.99464,407.5 L1556.99464,265 L1531,265 L1531,404.242857 C1531,413.833333 1533.03083,422.47381 1537.09249,430.164286 C1541.15416,437.854762 1546.93074,443.916667 1554.42225,448.35 C1561.91376,452.783333 1570.80429,455 1581.09383,455 L1581.09383,455 L1632,455 Z M1781,455 L1781,431.928571 L1710.07006,431.928571 C1703.72895,431.928571 1698.20311,430.52619 1693.49257,427.721429 C1688.78202,424.916667 1685.15853,421.161905 1682.62208,416.457143 C1680.08563,411.752381 1678.81741,406.685714 1678.81741,401.257143 C1678.81741,395.828571 1680.13093,390.716667 1682.75796,385.921429 C1685.385,381.12619 1689.09908,377.235714 1693.90021,374.25 C1698.70134,371.264286 1704.45364,369.771429 1711.15711,369.771429 L1711.15711,369.771429 L1770.9448,369.771429 L1770.9448,346.7 L1709.25478,346.7 C1703.81953,346.7 1698.83723,345.388095 1694.30786,342.764286 C1689.77849,340.140476 1686.20028,336.657143 1683.57325,332.314286 C1680.94621,327.971429 1679.6327,323.17619 1679.6327,317.928571 C1679.6327,312.319048 1680.90092,307.297619 1683.43737,302.864286 C1685.97381,298.430952 1689.41614,294.857143 1693.76433,292.142857 C1698.11253,289.428571 1703.09483,288.071429 1708.71125,288.071429 L1708.71125,288.071429 L1781,288.071429 L1781,265 L1705.72187,265 C1696.1196,265 1687.33263,267.397619 1679.36093,272.192857 C1671.38924,276.988095 1665.09342,283.366667 1660.47346,291.328571 C1655.8535,299.290476 1653.54352,308.157143 1653.54352,317.928571 C1653.54352,325.890476 1655.53645,333.490476 1659.52229,340.728571 C1663.50814,347.966667 1669.30573,354.028571 1676.91507,358.914286 C1669.12456,363.257143 1663.19108,369.228571 1659.11465,376.828571 C1655.03822,384.428571 1653,392.571429 1653,401.257143 C1653,410.847619 1655.26469,419.714286 1659.79406,427.857143 C1664.32343,436 1670.61925,442.559524 1678.68153,447.535714 C1686.74381,452.511905 1696.02902,455 1706.53715,455 L1706.53715,455 L1781,455 Z M1897.53903,455 C1908.03222,455 1917.34944,452.557143 1925.49071,447.671429 C1933.63197,442.785714 1939.91884,436.045238 1944.3513,427.45 C1948.78377,418.854762 1951,409.038095 1951,398 C1951,388.047619 1948.829,379.180952 1944.48699,371.4 C1940.14498,363.619048 1933.90335,357.466667 1925.76208,352.942857 C1917.62082,348.419048 1907.8513,346.157143 1896.45353,346.157143 L1896.45353,346.157143 L1859.81784,346.157143 C1854.0285,346.157143 1848.9176,344.8 1844.48513,342.085714 C1840.05266,339.371429 1836.7057,335.797619 1834.44424,331.364286 C1832.18278,326.930952 1831.05204,322.271429 1831.05204,317.385714 C1831.05204,312.319048 1832.228,307.569048 1834.57993,303.135714 C1836.93185,298.702381 1840.36927,295.083333 1844.89219,292.278571 C1849.41512,289.47381 1854.66171,288.071429 1860.63197,288.071429 L1860.63197,288.071429 L1938.7881,288.071429 L1938.7881,265 L1858.18959,265 C1847.69641,265 1838.42441,267.352381 1830.37361,272.057143 C1822.3228,276.761905 1816.08116,283.185714 1811.6487,291.328571 C1807.21623,299.471429 1805,308.609524 1805,318.742857 C1805,328.695238 1807.30669,337.607143 1811.92007,345.478571 C1816.53346,353.35 1822.91078,359.502381 1831.05204,363.935714 C1839.19331,368.369048 1848.60099,370.585714 1859.27509,370.585714 L1859.27509,370.585714 L1895.09665,370.585714 C1901.42875,370.585714 1906.81103,371.988095 1911.24349,374.792857 C1915.67596,377.597619 1919.11338,381.307143 1921.55576,385.921429 C1923.99814,390.535714 1925.21933,395.557143 1925.21933,400.985714 C1925.21933,406.233333 1923.95291,411.209524 1921.42007,415.914286 C1918.88724,420.619048 1915.35936,424.464286 1910.83643,427.45 C1906.31351,430.435714 1900.886,431.928571 1894.5539,431.928571 L1894.5539,431.928571 L1812.32714,431.928571 L1812.32714,455 L1897.53903,455 Z M2067.53903,455 C2078.03222,455 2087.34944,452.557143 2095.49071,447.671429 C2103.63197,442.785714 2109.91884,436.045238 2114.3513,427.45 C2118.78377,418.854762 2121,409.038095 2121,398 C2121,388.047619 2118.829,379.180952 2114.48699,371.4 C2110.14498,363.619048 2103.90335,357.466667 2095.76208,352.942857 C2087.62082,348.419048 2077.8513,346.157143 2066.45353,346.157143 L2066.45353,346.157143 L2029.81784,346.157143 C2024.0285,346.157143 2018.9176,344.8 2014.48513,342.085714 C2010.05266,339.371429 2006.7057,335.797619 2004.44424,331.364286 C2002.18278,326.930952 2001.05204,322.271429 2001.05204,317.385714 C2001.05204,312.319048 2002.228,307.569048 2004.57993,303.135714 C2006.93185,298.702381 2010.36927,295.083333 2014.89219,292.278571 C2019.41512,289.47381 2024.66171,288.071429 2030.63197,288.071429 L2030.63197,288.071429 L2108.7881,288.071429 L2108.7881,265 L2028.18959,265 C2017.69641,265 2008.42441,267.352381 2000.37361,272.057143 C1992.3228,276.761905 1986.08116,283.185714 1981.6487,291.328571 C1977.21623,299.471429 1975,308.609524 1975,318.742857 C1975,328.695238 1977.30669,337.607143 1981.92007,345.478571 C1986.53346,353.35 1992.91078,359.502381 2001.05204,363.935714 C2009.19331,368.369048 2018.60099,370.585714 2029.27509,370.585714 L2029.27509,370.585714 L2065.09665,370.585714 C2071.42875,370.585714 2076.81103,371.988095 2081.24349,374.792857 C2085.67596,377.597619 2089.11338,381.307143 2091.55576,385.921429 C2093.99814,390.535714 2095.21933,395.557143 2095.21933,400.985714 C2095.21933,406.233333 2093.95291,411.209524 2091.42007,415.914286 C2088.88724,420.619048 2085.35936,424.464286 2080.83643,427.45 C2076.31351,430.435714 2070.886,431.928571 2064.5539,431.928571 L2064.5539,431.928571 L1982.32714,431.928571 L1982.32714,455 L2067.53903,455 Z" id="NAMELESS" fill="#3D325B" fill-rule="nonzero"></path>
    </g>
</svg>