<?xml version="1.0" encoding="UTF-8"?>
<svg width="2289px" height="720px" viewBox="0 0 2289 720" version="1.1" xmlns="http://www.w3.org/2000/svg" xmlns:xlink="http://www.w3.org/1999/xlink">
    <title>Wordmark</title>
    <g id="Wordmark" stroke="none" stroke-width="1" fill="none" fill-rule="evenodd">
        <g id="bagua" transform="translate(142.000000, 120.000000)" fill="#FFFFFF" fill-rule="nonzero">
            <path d="M232.067137,219.498096 L248.544555,219.498096 L248.544555,100.834974 L232.067137,100.834974 L232.067137,219.498096 Z M265.028353,219.498096 L281.50577,219.498096 L281.50577,100.834974 L265.028353,100.834974 L265.028353,219.498096 Z M300.634784,96.4505416 L419.296917,96.4505416 L419.296917,79.9671222 L300.634784,79.9671222 L300.634784,96.4505416 Z M300.630269,129.412865 L419.292407,129.412865 L419.296917,112.933961 L300.634784,112.933961 L300.630269,129.412865 Z M418.335006,383.629691 L299.672868,383.629691 L299.672868,400.113111 L418.335006,400.113111 L418.335006,383.629691 Z M179.363994,317.66702 L60.701856,317.66702 L60.7063656,334.145924 L179.368504,334.145924 L179.363994,317.66702 Z M62.3970411,162.294459 L181.059174,162.294459 L181.063689,145.815554 L62.4015508,145.815554 L62.3970411,162.294459 Z M181.063689,129.332135 L181.059174,112.853231 L62.3970411,112.853231 L62.4015508,129.332135 L181.063689,129.332135 Z M199.105571,332.415046 L199.105571,378.564543 L215.582988,378.564543 L215.582988,332.415046 L199.105571,332.415046 Z M199.105571,259.901908 L199.105571,306.045024 L215.582988,306.045024 L215.582988,259.901908 L199.105571,259.901908 Z M232.066786,332.415046 L232.066786,378.564543 L248.544203,378.564543 L248.544203,332.415046 L232.066786,332.415046 Z M232.066786,259.901908 L232.066786,306.045024 L248.544203,306.045024 L248.544203,259.901908 L232.066786,259.901908 Z M265.028001,332.415046 L265.028001,378.564543 L281.505419,378.564543 L281.505419,332.415046 L265.028001,332.415046 Z M265.028001,259.901908 L265.028001,306.045024 L281.505419,306.045024 L281.505419,259.901908 L265.028001,259.901908 Z M130.897973,252.881755 L130.897973,299.031252 L147.381771,299.031252 L147.381771,252.881755 L130.897973,252.881755 Z M130.897973,226.518114 L147.381771,226.518114 L147.381771,180.368616 L130.897973,180.368616 L130.897973,226.518114 Z M62.4015129,79.8913987 L62.3970033,96.3703085 L108.54603,96.3748182 L108.54603,79.8913987 L62.4015129,79.8913987 Z M181.06403,79.8913987 L134.915003,79.8868891 L134.915003,96.3703085 L181.05952,96.3703085 L181.06403,79.8913987 Z M345.817234,317.705655 L299.672717,317.705655 L299.672717,334.189074 L345.817234,334.189074 L345.817234,317.705655 Z M418.335233,317.705655 L372.190716,317.705655 L372.190716,334.189074 L418.335233,334.189074 L418.335233,317.705655 Z M133.220126,400.074665 L179.369153,400.070156 L179.364643,383.591246 L133.220126,383.591246 L133.220126,400.074665 Z M60.7066739,400.070118 L106.851191,400.070118 L106.851191,383.586698 L60.7021642,383.591208 L60.7066739,400.070118 Z M345.821938,350.668017 L299.668396,350.668017 L299.672906,367.146926 L345.817423,367.146926 L345.821938,350.668017 Z M372.186358,350.668054 L372.186358,367.151474 L418.335385,367.146964 L418.335385,350.672569 L372.186358,350.668054 Z M133.220277,367.107756 L179.364794,367.107756 L179.369304,350.628846 L133.220277,350.624337 L133.220277,367.107756 Z M106.851305,367.112266 L106.851305,350.628846 L60.7067874,350.628846 L60.7022777,367.107756 L106.851305,367.112266 Z M373.149112,162.370453 L419.298144,162.374962 L419.298144,145.891543 L373.149112,145.896058 L373.149112,162.370453 Z M300.63566,162.375 L300.63566,145.891581 L346.780177,145.891581 L346.780177,162.375 L300.63566,162.375 Z M366.190001,252.88143 L382.667419,252.88143 L382.667419,299.030928 L366.190001,299.030928 L366.190001,252.88143 Z M366.190001,226.517789 L366.190001,180.368292 L382.667419,180.368292 L382.667419,226.517789 L366.190001,226.517789 Z M300.261515,252.881971 L300.261515,299.031468 L316.745312,299.031468 L316.745312,252.881971 L300.261515,252.881971 Z M300.261515,226.51833 L316.745312,226.51833 L316.745312,180.368833 L300.261515,180.368833 L300.261515,226.51833 Z M333.22273,299.031955 L349.706528,299.031955 L349.706528,180.368833 L333.22273,180.368833 L333.22273,299.031955 Z M114.420718,299.031955 L114.420718,180.368833 L97.9369196,180.368833 L97.9369196,299.031955 L114.420718,299.031955 Z M180.342932,299.031955 L180.342932,180.368833 L163.859134,180.368833 L163.859134,299.031955 L180.342932,299.031955 Z M199.104624,219.498745 L215.582042,219.498745 L215.582042,100.835623 L199.104624,100.835623 L199.104624,219.498745 Z" id="Shape" transform="translate(240.000000, 240.000000) rotate(-135.000000) translate(-240.000000, -240.000000) "></path>
        </g>
        <path d="M833.294036,452 C844.070735,452 853.735552,449.657689 862.288488,444.973066 C870.841424,440.288444 877.598243,433.77256 882.558946,425.425414 C887.519649,417.078269 890,407.623849 890,397.062155 L890,397.062155 L890,270.066298 L848.176144,270.066298 L848.176144,400.128453 C848.176144,402.854052 847.491909,405.366713 846.12344,407.666436 C844.75497,409.96616 842.916089,411.754834 840.606796,413.032459 C838.297503,414.310083 835.774387,414.948895 833.037448,414.948895 C830.471567,414.948895 828.11951,414.310083 825.981276,413.032459 C823.843042,411.754834 822.08969,409.96616 820.721221,407.666436 C819.352751,405.366713 818.668516,402.854052 818.668516,400.128453 L818.668516,400.128453 L818.668516,321.937845 C818.668516,311.205801 816.188165,301.751381 811.227462,293.574586 C806.266759,285.39779 799.50994,278.924494 790.957004,274.154696 C782.404068,269.384899 772.653722,267 761.705964,267 C750.929265,267 741.221683,269.384899 732.583218,274.154696 C723.944753,278.924494 717.187933,285.39779 712.31276,293.574586 C707.437587,301.751381 705,311.205801 705,321.937845 L705,321.937845 L705,448.933702 L747.080444,448.933702 L747.080444,318.871547 C747.080444,316.145948 747.721914,313.675875 749.004854,311.461326 C750.287795,309.246777 752.041147,307.458103 754.26491,306.095304 C756.488673,304.732505 758.969025,304.051105 761.705964,304.051105 C764.442903,304.051105 766.923255,304.732505 769.147018,306.095304 C771.370781,307.458103 773.166898,309.246777 774.535368,311.461326 C775.903837,313.675875 776.588072,316.145948 776.588072,318.871547 L776.588072,318.871547 L776.588072,397.062155 C776.588072,407.623849 779.068423,417.078269 784.029126,425.425414 C788.989829,433.77256 795.746648,440.288444 804.299584,444.973066 C812.85252,449.657689 822.517337,452 833.294036,452 Z M948.751009,449 L960.514132,414.491573 L1036.46299,414.491573 L1047.71467,449 L1094,449 L1035.69583,290.516854 C1032.79767,282.507491 1028.02423,276.585674 1021.3755,272.751404 C1014.72678,268.917135 1007.22566,267 998.87214,267 C990.518618,267 983.017497,269.002341 976.368775,273.007022 C969.720054,277.011704 964.946613,282.933521 962.048452,290.772472 L962.048452,290.772472 L904,449 L948.751009,449 Z M1026,379 L972,379 L996.312796,307.806897 C996.483412,306.956322 996.867299,306.275862 997.464455,305.765517 C998.061611,305.255172 998.78673,305 999.63981,305 C1000.49289,305 1001.21801,305.212644 1001.81517,305.637931 C1002.41232,306.063218 1002.88152,306.786207 1003.22275,307.806897 L1003.22275,307.806897 L1026,379 Z M1232,452 C1242.41067,452 1251.88267,449.700276 1260.416,445.100829 C1268.94933,440.501381 1275.776,434.11326 1280.896,425.936464 C1286.016,417.759669 1288.576,408.049724 1288.576,396.80663 L1288.576,396.80663 L1288.576,318.616022 C1288.576,315.890424 1289.25867,313.462937 1290.624,311.333564 C1291.98933,309.20419 1293.824,307.458103 1296.128,306.095304 C1298.432,304.732505 1300.864,304.051105 1303.424,304.051105 C1306.15467,304.051105 1308.62933,304.732505 1310.848,306.095304 C1313.06667,307.458103 1314.816,309.20419 1316.096,311.333564 C1317.376,313.462937 1318.016,315.890424 1318.016,318.616022 L1318.016,318.616022 L1318.016,448.933702 L1360,448.933702 L1360,321.937845 C1360,311.205801 1357.52533,301.751381 1352.576,293.574586 C1347.62667,285.39779 1340.928,278.924494 1332.48,274.154696 C1324.032,269.384899 1314.34667,267 1303.424,267 C1292.84267,267 1283.24267,269.384899 1274.624,274.154696 C1266.00533,278.924494 1259.22133,285.39779 1254.272,293.574586 C1249.32267,301.751381 1246.848,311.205801 1246.848,321.937845 L1246.848,321.937845 L1246.848,399.872928 C1246.848,402.768877 1246.16533,405.324125 1244.8,407.538674 C1243.43467,409.753223 1241.6,411.499309 1239.296,412.776934 C1236.992,414.054558 1234.47467,414.69337 1231.744,414.69337 C1229.184,414.69337 1226.83733,414.054558 1224.704,412.776934 C1222.57067,411.499309 1220.82133,409.753223 1219.456,407.538674 C1218.09067,405.324125 1217.408,402.768877 1217.408,399.872928 L1217.408,399.872928 L1217.408,321.937845 C1217.408,311.205801 1214.93333,301.751381 1209.984,293.574586 C1205.03467,285.39779 1198.29333,278.924494 1189.76,274.154696 C1181.22667,269.384899 1171.49867,267 1160.576,267 C1149.824,267 1140.13867,269.384899 1131.52,274.154696 C1122.90133,278.924494 1116.16,285.39779 1111.296,293.574586 C1106.432,301.751381 1104,311.205801 1104,321.937845 L1104,321.937845 L1104,448.933702 L1145.984,448.933702 L1145.984,318.871547 C1145.984,316.145948 1146.624,313.675875 1147.904,311.461326 C1149.184,309.246777 1150.93333,307.458103 1153.152,306.095304 C1155.37067,304.732505 1157.84533,304.051105 1160.576,304.051105 C1163.30667,304.051105 1165.78133,304.732505 1168,306.095304 C1170.21867,307.458103 1172.01067,309.246777 1173.376,311.461326 C1174.74133,313.675875 1175.424,316.145948 1175.424,318.871547 L1175.424,318.871547 L1175.424,396.80663 C1175.424,408.049724 1177.94133,417.759669 1182.976,425.936464 C1188.01067,434.11326 1194.83733,440.501381 1203.456,445.100829 C1212.07467,449.700276 1221.58933,452 1232,452 Z M1512,449 L1512,412.944286 L1444.56238,412.944286 C1440.98614,412.944286 1437.7505,412.177143 1434.85545,410.642857 C1431.9604,409.108571 1429.66139,406.935 1427.95842,404.122143 C1426.25545,401.309286 1425.40396,398.198095 1425.40396,394.788571 C1425.40396,391.208571 1426.25545,388.054762 1427.95842,385.327143 C1429.66139,382.599524 1431.9604,380.383333 1434.85545,378.678571 C1437.7505,376.97381 1440.98614,376.121429 1444.56238,376.121429 L1444.56238,376.121429 L1503.31485,376.121429 L1503.31485,340.321429 L1443.28515,340.321429 C1440.0495,340.321429 1437.06931,339.596905 1434.34455,338.147857 C1431.6198,336.69881 1429.44851,334.653095 1427.83069,332.010714 C1426.21287,329.368333 1425.40396,326.427619 1425.40396,323.188571 C1425.40396,319.779048 1426.21287,316.795714 1427.83069,314.238571 C1429.44851,311.681429 1431.6198,309.635714 1434.34455,308.101429 C1437.06931,306.567143 1440.0495,305.8 1443.28515,305.8 L1443.28515,305.8 L1512,306.055714 L1512,270 L1436.64356,270 C1426.93663,270 1418.08119,272.25881 1410.07723,276.776429 C1402.07327,281.294048 1395.68713,287.43119 1390.91881,295.187857 C1386.1505,302.944524 1383.76634,311.766667 1383.76634,321.654286 C1383.76634,328.64381 1385.34158,335.292381 1388.49208,341.6 C1391.64257,347.907619 1395.94257,353.362857 1401.39208,357.965714 C1395.77228,362.739048 1391.30198,368.407381 1387.98119,374.970714 C1384.6604,381.534048 1383,388.56619 1383,396.067143 C1383,406.125238 1385.42673,415.117857 1390.2802,423.045 C1395.13366,430.972143 1401.64752,437.279762 1409.82178,441.967857 C1417.99604,446.655952 1427.10693,449 1437.15446,449 L1437.15446,449 L1512,449 Z M1641,449 L1641,413.2 L1593.85194,413.2 C1589.60437,413.2 1586.03641,411.665714 1583.14806,408.597143 C1580.25971,405.528571 1578.81553,401.948571 1578.81553,397.857143 L1578.81553,397.857143 L1578.81553,270 L1536,270 L1536,394.788571 C1536,404.67619 1538.29369,413.711429 1542.88107,421.894286 C1547.46845,430.077143 1553.92476,436.640476 1562.25,441.584286 C1570.57524,446.528095 1580.25971,449 1591.3034,449 L1591.3034,449 L1641,449 Z M1784,449 L1784,412.944286 L1716.56238,412.944286 C1712.98614,412.944286 1709.7505,412.177143 1706.85545,410.642857 C1703.9604,409.108571 1701.66139,406.935 1699.95842,404.122143 C1698.25545,401.309286 1697.40396,398.198095 1697.40396,394.788571 C1697.40396,391.208571 1698.25545,388.054762 1699.95842,385.327143 C1701.66139,382.599524 1703.9604,380.383333 1706.85545,378.678571 C1709.7505,376.97381 1712.98614,376.121429 1716.56238,376.121429 L1716.56238,376.121429 L1775.31485,376.121429 L1775.31485,340.321429 L1715.28515,340.321429 C1712.0495,340.321429 1709.06931,339.596905 1706.34455,338.147857 C1703.6198,336.69881 1701.44851,334.653095 1699.83069,332.010714 C1698.21287,329.368333 1697.40396,326.427619 1697.40396,323.188571 C1697.40396,319.779048 1698.21287,316.795714 1699.83069,314.238571 C1701.44851,311.681429 1703.6198,309.635714 1706.34455,308.101429 C1709.06931,306.567143 1712.0495,305.8 1715.28515,305.8 L1715.28515,305.8 L1784,306.055714 L1784,270 L1708.64356,270 C1698.93663,270 1690.08119,272.25881 1682.07723,276.776429 C1674.07327,281.294048 1667.68713,287.43119 1662.91881,295.187857 C1658.1505,302.944524 1655.76634,311.766667 1655.76634,321.654286 C1655.76634,328.64381 1657.34158,335.292381 1660.49208,341.6 C1663.64257,347.907619 1667.94257,353.362857 1673.39208,357.965714 C1667.77228,362.739048 1663.30198,368.407381 1659.98119,374.970714 C1656.6604,381.534048 1655,388.56619 1655,396.067143 C1655,406.125238 1657.42673,415.117857 1662.2802,423.045 C1667.13366,430.972143 1673.64752,437.279762 1681.82178,441.967857 C1689.99604,446.655952 1699.10693,449 1709.15446,449 L1709.15446,449 L1784,449 Z M1894.03197,449 C1903.92185,449 1912.95915,446.74119 1921.14387,442.223571 C1929.3286,437.705952 1935.8508,431.142619 1940.71048,422.533571 C1945.57016,413.924524 1948,403.482857 1948,391.208571 C1948,380.809524 1945.65542,371.731667 1940.96625,363.975 C1936.27709,356.218333 1929.71226,350.166429 1921.27176,345.819286 C1912.83126,341.472143 1902.89876,339.298571 1891.47425,339.298571 L1891.47425,339.298571 L1862.57194,339.298571 C1859.50266,339.298571 1856.68917,338.531429 1854.13144,336.997143 C1851.57371,335.462857 1849.61279,333.459762 1848.24867,330.987857 C1846.88455,328.515952 1846.20249,325.745714 1846.20249,322.677143 C1846.20249,319.608571 1846.88455,316.795714 1848.24867,314.238571 C1849.61279,311.681429 1851.57371,309.635714 1854.13144,308.101429 C1856.68917,306.567143 1859.50266,305.8 1862.57194,305.8 L1862.57194,305.8 L1936.746,305.8 L1936.746,270 L1857.71226,270 C1847.82238,270 1838.78508,272.25881 1830.60036,276.776429 C1822.41563,281.294048 1815.93606,287.559048 1811.16163,295.571429 C1806.38721,303.58381 1804,313.045238 1804,323.955714 C1804,335.036667 1806.5151,344.540714 1811.54529,352.467857 C1816.57549,360.395 1823.35346,366.404286 1831.87922,370.495714 C1840.40497,374.587143 1849.86856,376.632857 1860.26998,376.632857 L1860.26998,376.632857 L1887.89343,376.632857 C1891.30373,376.632857 1894.373,377.485238 1897.10124,379.19 C1899.82948,380.894762 1902.00355,383.110952 1903.62345,385.838571 C1905.24334,388.56619 1906.05329,391.634762 1906.05329,395.044286 C1906.05329,398.283333 1905.24334,401.266667 1903.62345,403.994286 C1902.00355,406.721905 1899.82948,408.938095 1897.10124,410.642857 C1894.373,412.347619 1891.30373,413.2 1887.89343,413.2 L1887.89343,413.2 L1811.41741,413.2 L1811.41741,449 L1894.03197,449 Z M2055.03197,449 C2064.92185,449 2073.95915,446.74119 2082.14387,442.223571 C2090.3286,437.705952 2096.8508,431.142619 2101.71048,422.533571 C2106.57016,413.924524 2109,403.482857 2109,391.208571 C2109,380.809524 2106.65542,371.731667 2101.96625,363.975 C2097.27709,356.218333 2090.71226,350.166429 2082.27176,345.819286 C2073.83126,341.472143 2063.89876,339.298571 2052.47425,339.298571 L2052.47425,339.298571 L2023.57194,339.298571 C2020.50266,339.298571 2017.68917,338.531429 2015.13144,336.997143 C2012.57371,335.462857 2010.61279,333.459762 2009.24867,330.987857 C2007.88455,328.515952 2007.20249,325.745714 2007.20249,322.677143 C2007.20249,319.608571 2007.88455,316.795714 2009.24867,314.238571 C2010.61279,311.681429 2012.57371,309.635714 2015.13144,308.101429 C2017.68917,306.567143 2020.50266,305.8 2023.57194,305.8 L2023.57194,305.8 L2097.746,305.8 L2097.746,270 L2018.71226,270 C2008.82238,270 1999.78508,272.25881 1991.60036,276.776429 C1983.41563,281.294048 1976.93606,287.559048 1972.16163,295.571429 C1967.38721,303.58381 1965,313.045238 1965,323.955714 C1965,335.036667 1967.5151,344.540714 1972.54529,352.467857 C1977.57549,360.395 1984.35346,366.404286 1992.87922,370.495714 C2001.40497,374.587143 2010.86856,376.632857 2021.26998,376.632857 L2021.26998,376.632857 L2048.89343,376.632857 C2052.30373,376.632857 2055.373,377.485238 2058.10124,379.19 C2060.82948,380.894762 2063.00355,383.110952 2064.62345,385.838571 C2066.24334,388.56619 2067.05329,391.634762 2067.05329,395.044286 C2067.05329,398.283333 2066.24334,401.266667 2064.62345,403.994286 C2063.00355,406.721905 2060.82948,408.938095 2058.10124,410.642857 C2055.373,412.347619 2052.30373,413.2 2048.89343,413.2 L2048.89343,413.2 L1972.41741,413.2 L1972.41741,449 L2055.03197,449 Z" id="NAMELESS" fill="#FFFFFF" fill-rule="nonzero"></path>
    </g>
</svg>