<svg width="598" height="607" viewBox="0 0 598 607" fill="none" xmlns="http://www.w3.org/2000/svg">
<g id="black">
<g id="wings">
<path id="wing left" d="M111.565 438.582C108.34 436.92 104.887 435.985 101.31 435.658C95.2455 435.105 89.0409 436.313 83.1255 438.208C77.1774 440.113 71.0626 442.866 65.0817 445.792C61.6148 447.488 58.2157 449.224 54.8712 450.933C46.2755 455.323 38.0398 459.531 29.9374 462.396C23.0949 464.816 17.2805 465.913 12.3131 465.519C14.217 462.28 16.4146 458.263 18.8535 453.797L19.2027 453.157C25.1876 442.195 32.9619 427.956 42.773 412.862C60.4753 385.626 84.2657 356.485 114.903 339.287C113.873 346.306 112.747 355.553 111.872 366.515C110.318 385.995 109.551 410.988 111.565 438.582Z" fill="black" stroke="black" stroke-width="15" stroke-linecap="round" stroke-linejoin="round"/>
<path id="wing right" d="M485.13 366.524C484.255 355.561 483.129 346.314 482.099 339.295C512.736 356.493 536.527 385.635 554.229 412.87C564.04 427.965 571.814 442.204 577.799 453.166L578.149 453.805C580.587 458.272 582.785 462.289 584.689 465.527C579.722 465.922 573.907 464.825 567.065 462.405C558.962 459.539 550.727 455.332 542.131 450.941C538.786 449.233 535.387 447.496 531.92 445.8C525.939 442.874 519.825 440.121 513.877 438.216C507.961 436.321 501.757 435.113 495.692 435.667C492.115 435.993 488.662 436.929 485.437 438.59C487.451 410.997 486.684 386.004 485.13 366.524Z" fill="black" stroke="black" stroke-width="15" stroke-linecap="round" stroke-linejoin="round"/>
</g>
<g id="drop body">
<path id="drop" d="M298 19C298 19 120 231.971 120 398.2C120 519.971 209 595 298 595C387 595 476 519.971 476 398.2C476 231.971 298 19 298 19Z" stroke="black" stroke-width="24" stroke-linecap="round"/>
<mask id="mask0" mask-type="alpha" maskUnits="userSpaceOnUse" x="108" y="0" width="380" height="607">
<path id="drop_2" d="M298 19C298 19 120 231.971 120 398.2C120 519.971 209 595 298 595C387 595 476 519.971 476 398.2C476 231.971 298 19 298 19Z" fill="white" stroke="white" stroke-width="24" stroke-linecap="round"/>
</mask>
<g mask="url(#mask0)">
<g id="ocean">
<path id="wave center" d="M545.564 449.976C545.561 449.995 545.557 450.013 545.554 450.032C544.751 454.316 543.338 460.514 540.914 467.989C536.062 482.947 527.187 502.933 511.116 522.925C479.211 562.612 417.988 603.5 300 603.5C182.012 603.5 120.789 562.612 88.8842 522.925C72.8127 502.933 63.9379 482.947 59.0862 467.989C56.6617 460.514 55.2488 454.316 54.4463 450.032C54.4428 450.013 54.4393 449.995 54.4359 449.976C54.9556 449.792 55.4958 449.59 56.0557 449.366C61.6204 447.146 69.0124 442.923 77.5691 434.956C92.8141 420.762 111.768 394.678 130.904 346.612C136.491 359.24 143.854 373.802 152.455 387.968C165.503 409.455 181.944 430.949 200.024 442.989C209.152 449.067 219.192 453.067 229.741 452.94C240.472 452.81 250.769 448.421 260.221 439.498C275.239 425.32 288.648 399.218 299.999 357.827C311.346 399.228 324.741 425.357 339.739 439.571C349.175 448.515 359.457 452.936 370.181 453.096C380.726 453.253 390.763 449.278 399.889 443.216C417.962 431.212 434.399 409.731 447.456 388.216C456.09 373.989 463.485 359.344 469.101 346.625C488.235 394.683 507.187 420.763 522.431 434.956C530.988 442.923 538.38 447.146 543.944 449.366C544.504 449.59 545.044 449.792 545.564 449.976Z" stroke="black" stroke-width="15" stroke-linecap="round" stroke-linejoin="round"/>
<path id="wave around" d="M66.7271 469.804C65.9235 468.529 65.1558 467.289 64.4237 466.09C64.4882 466.117 64.5528 466.145 64.6176 466.173C78.2704 472.014 97.2081 478.03 117.542 478.03C138.069 478.03 160.057 471.876 179.057 453.401C193.162 439.686 205.233 419.556 214.014 391.045C221.976 421.395 232.169 445.568 243.829 463.384C259.202 486.876 278.03 500.537 298.5 500.537C318.97 500.537 337.798 486.876 353.171 463.384C364.831 445.568 375.024 421.395 382.986 391.045C391.767 419.556 403.838 439.686 417.943 453.401C436.943 471.876 458.931 478.03 479.458 478.03C499.792 478.03 518.73 472.014 532.382 466.173C532.447 466.145 532.512 466.117 532.576 466.09C531.844 467.289 531.077 468.529 530.273 469.804C520.75 484.922 506.23 505.086 486.279 525.235C446.405 565.505 385.089 605.5 298.5 605.5C211.911 605.5 150.595 565.505 110.721 525.235C90.77 505.086 76.2503 484.922 66.7271 469.804Z" fill="black" stroke="black" stroke-width="15" stroke-linecap="round" stroke-linejoin="round"/>
</g>
</g>
</g>
<path id="Shape" fill-rule="evenodd" clip-rule="evenodd" d="M299 307C260.892 307 230 276.108 230 238C230 199.892 260.892 169 299 169C337.108 169 368 199.892 368 238C368 276.108 337.108 307 299 307ZM299 284C324.405 284 345 263.405 345 238C345 212.595 324.405 192 299 192C273.595 192 253 212.595 253 238C253 263.405 273.595 284 299 284ZM299 262C285.745 262 275 251.255 275 238C275 224.745 285.745 214 299 214C312.255 214 323 224.745 323 238C323 251.255 312.255 262 299 262ZM299 244C302.314 244 305 241.314 305 238C305 234.686 302.314 232 299 232C295.686 232 293 234.686 293 238C293 241.314 295.686 244 299 244Z" fill="black"/>
</g>
</svg>
