<svg width="80" height="31" viewBox="0 0 80 31" fill="none" xmlns="http://www.w3.org/2000/svg">
<g clip-path="url(#clip0)">
<path d="M20.4757 25.5872C22.7452 25.5872 24.6315 24.2609 25.4273 22.6988V25.263H29.6715V2.86304H25.4273V12.1472C24.5725 10.5851 23.0399 9.49462 20.5641 9.49462C16.7031 9.49462 13.7852 12.4715 13.7852 17.5409V17.7767C13.7852 22.9051 16.7325 25.5872 20.4757 25.5872ZM21.7431 22.2567C19.6209 22.2567 18.1473 20.7536 18.1473 17.6883V17.4525C18.1473 14.3872 19.4736 12.7662 21.8609 12.7662C24.1894 12.7662 25.5452 14.3283 25.5452 17.3936V17.6294C25.5452 20.7536 23.9831 22.2567 21.7431 22.2567Z" fill="#fafafa"/>
<path d="M37.6211 25.5872C40.0379 25.5872 41.3937 24.6441 42.2779 23.4062V25.263H46.4337V15.2125C46.4337 11.0272 43.7516 9.49462 39.979 9.49462C36.2063 9.49462 33.3179 11.1157 33.0527 14.7704H37.0905C37.2674 13.4441 38.0337 12.5894 39.7137 12.5894C41.659 12.5894 42.219 13.5915 42.219 15.4188V16.0378H40.48C35.7642 16.0378 32.4632 17.3936 32.4632 20.9894C32.4632 24.2315 34.8211 25.5872 37.6211 25.5872ZM38.8884 22.6104C37.3263 22.6104 36.6484 21.8736 36.6484 20.7536C36.6484 19.103 38.0927 18.5725 40.5684 18.5725H42.219V19.8694C42.219 21.5788 40.7748 22.6104 38.8884 22.6104Z" fill="#fafafa"/>
<path d="M49.1671 25.263H53.4113V9.8483H49.1671V25.263ZM51.2597 7.75567C52.645 7.75567 53.706 6.75356 53.706 5.42725C53.706 4.10093 52.645 3.09883 51.2597 3.09883C49.9039 3.09883 48.8429 4.10093 48.8429 5.42725C48.8429 6.75356 49.9039 7.75567 51.2597 7.75567Z" fill="#fafafa"/>
<path d="M56.4039 25.263H60.6481V2.86304H56.4039V25.263Z" fill="#fafafa"/>
<path d="M65.6737 30.5094H69.8L78.141 9.8483H74.0442L70.5958 19.103L66.8526 9.8483H62.2547L68.3853 23.7009L65.6737 30.5094Z" fill="#fafafa"/>
<path d="M0 30.5093H4.12738L16.1232 0.301017L12.2563 0.286377L0 30.5093Z" fill="url(#paint0_linear)"/>
</g>
<defs>
<linearGradient id="paint0_linear" x1="8.0616" y1="0.286377" x2="8.0616" y2="30.5093" gradientUnits="userSpaceOnUse">
<stop stop-color="#1BEBB9"/>
<stop offset="1" stop-color="#FD9C0C"/>
</linearGradient>
<clipPath id="clip0">
<rect width="80" height="30.5263" fill="white"/>
</clipPath>
</defs>
</svg>
